{
    "asset" : {
        "generator" : "Khronos glTF Blender I/O v1.6.16",
        "version" : "2.0"
    },
    "scene" : 0,
    "scenes" : [
        {
            "name" : "Scene",
            "nodes" : [
                0,
                1,
                2,
                3,
                4
            ]
        }
    ],
    "nodes" : [
        {
            "mesh" : 0,
            "name" : "Cube"
        },
        {
            "name" : "Light",
            "rotation" : [
                0.16907575726509094,
                0.7558803558349609,
                -0.27217137813568115,
                0.570947527885437
            ],
            "translation" : [
                4.076245307922363,
                5.903861999511719,
                -1.0054539442062378
            ]
        },
        {
            "name" : "Camera",
            "rotation" : [
                0.7793741822242737,
                0.05227309837937355,
                -0.08303739875555038,
                0.618828296661377
            ],
            "translation" : [
                17.343765258789062,
                -5.611072063446045,
                91.87153625488281
            ]
        },
        {
            "mesh" : 1,
            "name" : "Plane",
            "rotation" : [
                0.7071068286895752,
                0,
                0,
                0.7071068286895752
            ],
            "scale" : [
                17.418787002563477,
                17.418787002563477,
                17.418787002563477
            ],
            "translation" : [
                0.2442646026611328,
                19.9168758392334,
                4.056574821472168
            ]
        },
        {
            "mesh" : 2,
            "name" : "Plane.001",
            "rotation" : [
                -0.3659276068210602,
                0.6050595045089722,
                0.5920644998550415,
                0.3866000473499298
            ],
            "scale" : [
                17.418787002563477,
                17.418787002563477,
                17.418787002563477
            ],
            "translation" : [
                0.2442646026611328,
                19.9168758392334,
                1.3724241256713867
            ]
        }
    ],
    "materials" : [
        {
            "doubleSided" : true,
            "name" : "Material",
            "pbrMetallicRoughness" : {
                "baseColorFactor" : [
                    0.18446893990039825,
                    0.04876251146197319,
                    0.0015789959579706192,
                    1
                ],
                "metallicFactor" : 0,
                "roughnessFactor" : 0.4000000059604645
            }
        },
        {
            "alphaMode" : "BLEND",
            "doubleSided" : true,
            "name" : "Material.001",
            "pbrMetallicRoughness" : {
                "baseColorTexture" : {
                    "index" : 0
                },
                "metallicFactor" : 0,
                "roughnessFactor" : 0.5
            }
        },
        {
            "alphaMode" : "BLEND",
            "doubleSided" : true,
            "name" : "Material.002",
            "pbrMetallicRoughness" : {
                "baseColorTexture" : {
                    "index" : 1
                },
                "metallicFactor" : 0,
                "roughnessFactor" : 0.5
            }
        }
    ],
    "meshes" : [
        {
            "name" : "Cube",
            "primitives" : [
                {
                    "attributes" : {
                        "POSITION" : 0,
                        "NORMAL" : 1,
                        "TEXCOORD_0" : 2
                    },
                    "indices" : 3,
                    "material" : 0
                }
            ]
        },
        {
            "name" : "Plane",
            "primitives" : [
                {
                    "attributes" : {
                        "POSITION" : 4,
                        "NORMAL" : 5,
                        "TEXCOORD_0" : 6
                    },
                    "indices" : 7,
                    "material" : 1
                }
            ]
        },
        {
            "name" : "Plane.001",
            "primitives" : [
                {
                    "attributes" : {
                        "POSITION" : 8,
                        "NORMAL" : 9,
                        "TEXCOORD_0" : 10
                    },
                    "indices" : 7,
                    "material" : 2
                }
            ]
        }
    ],
    "textures" : [
        {
            "sampler" : 0,
            "source" : 0
        },
        {
            "sampler" : 0,
            "source" : 0
        }
    ],
    "images" : [
        {
            "bufferView" : 8,
            "mimeType" : "image/png",
            "name" : "TexturesCom_Trees0091_alphamasked_S"
        }
    ],
    "accessors" : [
        {
            "bufferView" : 0,
            "componentType" : 5126,
            "count" : 227,
            "max" : [
                13.642494201660156,
                27.95687484741211,
                9.506152153015137
            ],
            "min" : [
                -9.93313980102539,
                -1,
                -11.073305130004883
            ],
            "type" : "VEC3"
        },
        {
            "bufferView" : 1,
            "componentType" : 5126,
            "count" : 227,
            "type" : "VEC3"
        },
        {
            "bufferView" : 2,
            "componentType" : 5126,
            "count" : 227,
            "type" : "VEC2"
        },
        {
            "bufferView" : 3,
            "componentType" : 5123,
            "count" : 1140,
            "type" : "SCALAR"
        },
        {
            "bufferView" : 4,
            "componentType" : 5126,
            "count" : 25,
            "max" : [
                1,
                -0.07718551158905029,
                1
            ],
            "min" : [
                -1,
                -0.3310026526451111,
                -1
            ],
            "type" : "VEC3"
        },
        {
            "bufferView" : 5,
            "componentType" : 5126,
            "count" : 25,
            "type" : "VEC3"
        },
        {
            "bufferView" : 6,
            "componentType" : 5126,
            "count" : 25,
            "type" : "VEC2"
        },
        {
            "bufferView" : 7,
            "componentType" : 5123,
            "count" : 96,
            "type" : "SCALAR"
        },
        {
            "bufferView" : 9,
            "componentType" : 5126,
            "count" : 25,
            "max" : [
                1,
                -0.07718551158905029,
                1
            ],
            "min" : [
                -1,
                -0.3310026526451111,
                -1
            ],
            "type" : "VEC3"
        },
        {
            "bufferView" : 10,
            "componentType" : 5126,
            "count" : 25,
            "type" : "VEC3"
        },
        {
            "bufferView" : 11,
            "componentType" : 5126,
            "count" : 25,
            "type" : "VEC2"
        }
    ],
    "bufferViews" : [
        {
            "buffer" : 0,
            "byteLength" : 2724,
            "byteOffset" : 0
        },
        {
            "buffer" : 0,
            "byteLength" : 2724,
            "byteOffset" : 2724
        },
        {
            "buffer" : 0,
            "byteLength" : 1816,
            "byteOffset" : 5448
        },
        {
            "buffer" : 0,
            "byteLength" : 2280,
            "byteOffset" : 7264
        },
        {
            "buffer" : 0,
            "byteLength" : 300,
            "byteOffset" : 9544
        },
        {
            "buffer" : 0,
            "byteLength" : 300,
            "byteOffset" : 9844
        },
        {
            "buffer" : 0,
            "byteLength" : 200,
            "byteOffset" : 10144
        },
        {
            "buffer" : 0,
            "byteLength" : 192,
            "byteOffset" : 10344
        },
        {
            "buffer" : 0,
            "byteLength" : 874627,
            "byteOffset" : 10536
        },
        {
            "buffer" : 0,
            "byteLength" : 300,
            "byteOffset" : 885164
        },
        {
            "buffer" : 0,
            "byteLength" : 300,
            "byteOffset" : 885464
        },
        {
            "buffer" : 0,
            "byteLength" : 200,
            "byteOffset" : 885764
        }
    ],
    "samplers" : [
        {
            "magFilter" : 9729,
            "minFilter" : 9987
        }
    ],
    "buffers" : [
        {
            "byteLength" : 885964,
            "uri" : "data:application/octet-stream;base64,"
        }
    ]
}
